<?xml version="1.0" encoding="utf-8"?>
<!DOCTYPE svg PUBLIC "-//W3C//DTD SVG 1.1//EN" "http://www.w3.org/Graphics/SVG/1.1/DTD/svg11.dtd">
<svg version="1.1" id="Layer_1" xmlns="http://www.w3.org/2000/svg" xmlns:xlink="http://www.w3.org/1999/xlink" x="0px" y="0px"
     viewBox="0 0 595.3 595.3" enable-background="new 0 0 595.3 595.3" xml:space="preserve">
<g>
    <g>
        <circle fill="#022A44" cx="522.6" cy="460.7" r="1.4"/>
        <path fill="#022A44" d="M565.6,454.8h-73.9c-0.6,0-1.1,0.5-1.1,1.1v9.7c0,0.6,0.5,1.1,1.1,1.1h73.9c0.6,0,1.1-0.5,1.1-1.1v-9.7
            C566.7,455.3,566.2,454.8,565.6,454.8z M500.6,461.7l-2.4,1.4c-0.2,0.1-0.4,0.1-0.5,0.1s-0.4,0-0.5-0.1c-0.3-0.2-0.5-0.5-0.5-0.9
            v-2.8c0-0.4,0.2-0.7,0.5-0.9c0.3-0.2,0.7-0.2,1.1,0l2.4,1.4c0.3,0.2,0.5,0.6,0.5,0.9C501.1,461.1,500.9,461.5,500.6,461.7z
             M559.8,461.8H526c-0.5,1.4-1.8,2.5-3.4,2.5c-1.6,0-2.9-1.1-3.4-2.5h-14.4v-2.2h14.4c0.5-1.4,1.8-2.5,3.4-2.5
            c1.6,0,2.9,1.1,3.4,2.5h33.8V461.8z"/>
        <path fill="#022A44" d="M565.6,412.4h-73.9c-0.6,0-1.1,0.5-1.1,1.1v37.9c0,0.6,0.5,1.1,1.1,1.1h73.9c0.6,0,1.1-0.5,1.1-1.1v-37.9
            C566.7,412.9,566.2,412.4,565.6,412.4z M540,434L518.3,445c-0.2,0.1-0.3,0.1-0.5,0.1c-0.2,0-0.4-0.1-0.6-0.2
            c-0.3-0.2-0.5-0.5-0.5-0.9v-22.1c0-0.4,0.2-0.7,0.5-0.9c0.3-0.2,0.7-0.2,1.1,0L540,432c0.4,0.2,0.6,0.6,0.6,1S540.4,433.8,540,434
            z"/>
    </g>
    <path fill="#4bafe2" d="M103.5,123.7H30c-0.6,0-1.1,0.5-1.1,1.1v30.9c0,0.6,0.5,1.1,1.1,1.1h28.1l2.5,2.5l-1.6,1.6
        c-0.9-0.3-1.8-0.5-2.7-0.5c-2.2,0-4.3,0.9-5.8,2.4c-3.2,3.2-3.2,8.4,0,11.7c1.6,1.6,3.6,2.4,5.8,2.4c2.2,0,4.3-0.9,5.8-2.4
        c2.2-2.2,3-5.6,2-8.5l1.6-1.6l1.6,1.6c-1,2.9-0.3,6.3,2,8.5c1.6,1.6,3.6,2.4,5.8,2.4s4.3-0.9,5.8-2.4c1.6-1.6,2.4-3.6,2.4-5.8
        s-0.9-4.3-2.4-5.8c-1.6-1.6-3.6-2.4-5.8-2.4c-0.9,0-1.8,0.2-2.7,0.5l-1.6-1.6l3.9-3.9c5.1-5.1,10.6-13.9,7.9-16.5
        c-0.4-0.4-1.1-0.4-1.5,0l-10.5,10.5c-0.6,0-1-0.5-1-1.1v-15.9c0-0.6,0.5-1.1,1.1-1.1h28.1c0.6,0,1.1,0.5,1.1,1.1v15.9
        c0,0.6-0.5,1.1-1.1,1.1H83.1c-1.5,2.2-3.2,4.3-4.9,6l-1.5,1.5h26.8c0.6,0,1.1-0.5,1.1-1.1v-30.9
        C104.6,124.2,104.1,123.7,103.5,123.7z M72.2,165.9c1.5-1.5,4.1-1.5,5.6,0c0.8,0.7,1.2,1.7,1.2,2.8s-0.4,2.1-1.2,2.8
        c-0.8,0.7-1.7,1.2-2.8,1.2s-2.1-0.4-2.8-1.2c-0.8-0.7-1.2-1.7-1.2-2.8S71.5,166.6,72.2,165.9z M64.1,126.7h5.3v2.2h-5.3V126.7z
         M54.3,126.7h5.3v2.2h-5.3V126.7z M44.6,126.7h5.3v2.2h-5.3V126.7z M34.8,126.7h5.3v2.2h-5.3V126.7z M33.8,148.2v-15.9
        c0-0.6,0.5-1.1,1.1-1.1h28.1c0.6,0,1.1,0.5,1.1,1.1v15.9c0,0.6-0.5,1.1-1.1,1.1H34.8C34.2,149.3,33.8,148.8,33.8,148.2z
         M65.9,157.8c0.7,0,1.2,0.5,1.2,1.2c0,0.7-0.5,1.2-1.2,1.2s-1.2-0.5-1.2-1.2C64.7,158.4,65.3,157.8,65.9,157.8z M40.2,153.9h-5.3
        v-2.2h5.3V153.9z M49.9,153.9h-5.3v-2.2h5.3V153.9z M54.3,151.7h5.3v2.2h-5.3V151.7z M59.1,171.5c-0.8,0.7-1.7,1.2-2.8,1.2
        c-1.1,0-2.1-0.4-2.8-1.2c-0.8-0.7-1.2-1.7-1.2-2.8s0.4-2.1,1.2-2.8c1.5-1.5,4.1-1.5,5.6,0c0.8,0.7,1.2,1.7,1.2,2.8
        S59.8,170.7,59.1,171.5z M66,153.9h-1.9v-2.2h4.1L66,153.9z M79.2,128.8h-5.3v-2.2h5.3V128.8z M88.9,128.8h-5.3v-2.2h5.3V128.8z
         M98.7,128.8h-5.3v-2.2h5.3V128.8z M88.9,153.9h-5.3v-2.2h5.3V153.9z M98.7,153.9h-5.3v-2.2h5.3V153.9z"/>
    <g>
        <path fill="#022A44" d="M365.3,447.7c0.2,0,0.3,0,0.5-0.1l17.6-9c0.4-0.2,0.6-0.6,0.6-1s-0.2-0.8-0.6-1l-17.6-9
            c-0.3-0.2-0.7-0.2-1.1,0c-0.3,0.2-0.5,0.5-0.5,0.9v18c0,0.4,0.2,0.7,0.5,0.9C364.9,447.7,365.1,447.7,365.3,447.7z"/>
        <path fill="#022A44" d="M388.6,404.9h-29c-2.2,0-4,1.8-4,4v61.2c0,2.2,1.8,4,4,4h29c2.2,0,4-1.8,4-4v-61.2
            C392.6,406.7,390.8,404.9,388.6,404.9z M370.8,409.3h6.6v2.2h-6.6V409.3z M374.1,470.3c-1.9,0-3.4-1.5-3.4-3.4
            c0-1.9,1.5-3.4,3.4-3.4c1.9,0,3.4,1.5,3.4,3.4C377.6,468.7,376,470.3,374.1,470.3z M390.4,459.6h-32.7v-43.8h32.7V459.6z"/>
    </g>
    <g>
        <path fill="#022A44" d="M393.8,128.2l-40.6,10.1c-0.5,0.1-0.8,0.6-0.8,1v17.8c0,0.5,0.3,0.9,0.8,1l40.6,10.1c0.1,0,0.2,0,0.3,0
            c0.2,0,0.5-0.1,0.7-0.2c0.3-0.2,0.4-0.5,0.4-0.9v-38c0-0.3-0.2-0.6-0.4-0.9C394.4,128.2,394.1,128.1,393.8,128.2z"/>
        <path fill="#022A44" d="M402.8,125.6h-2.7c-1.4,0-2.6,1.2-2.6,2.6v40.2c0,1.4,1.2,2.6,2.6,2.6h2.7c1.4,0,2.6-1.2,2.6-2.6v-40.2
            C405.4,126.7,404.2,125.6,402.8,125.6z"/>
        <path fill="#022A44" d="M348.9,138.3h-5c-0.6,0-1.1,0.5-1.1,1.1v17.8c0,0.6,0.5,1.1,1.1,1.1h5c0.6,0,1.1-0.5,1.1-1.1v-17.8
            C350,138.7,349.5,138.3,348.9,138.3z"/>
        <path fill="#022A44" d="M369.1,164.8c-0.1-0.4-0.4-0.6-0.8-0.7l-10.5-2.5c-0.4-0.1-0.9,0.1-1.1,0.4c-0.3,0.3-0.3,0.8-0.1,1.2
            l6.3,11.4c0.2,0.3,0.6,0.6,0.9,0.6h6.9c0,0,0,0,0,0c0.6,0,1.1-0.5,1.1-1.1c0-0.2-0.1-0.4-0.1-0.5L369.1,164.8z"/>
    </g>
    <g>
        <path fill-rule="evenodd" clip-rule="evenodd" fill="#022A44" d="M258,121.2h-73.9c-0.6,0-1.1,0.5-1.1,1.1v37.1v5.7
            c0,0.6,0.5,1.1,1.1,1.1H258c0.6,0,1.1-0.5,1.1-1.1v-5.7v-37.1C259.1,121.6,258.6,121.2,258,121.2z M193.8,130.3h54.4v22.9h-54.4
            V130.3z M256.9,163.9h-71.7v-3.5h71.7V163.9z"/>
        <path fill-rule="evenodd" clip-rule="evenodd" fill="#022A44" d="M223.8,168.9c-0.1-0.5-0.5-0.9-1.1-0.9h-3.4c-0.5,0-1,0.5-1.1,1
            l-1.5,8.3h-5.9v2.2h6.8h6.8h6.8v-2.2h-5.9L223.8,168.9z"/>
        <rect x="240.7" y="149" fill-rule="evenodd" clip-rule="evenodd" fill="#022A44" width="4" height="2.2"/>
        <rect x="240.7" y="132.4" fill-rule="evenodd" clip-rule="evenodd" fill="#022A44" width="4" height="2.2"/>
        <rect x="233.5" y="149" fill-rule="evenodd" clip-rule="evenodd" fill="#022A44" width="4" height="2.2"/>
        <rect x="233.5" y="132.4" fill-rule="evenodd" clip-rule="evenodd" fill="#022A44" width="4" height="2.2"/>
        <rect x="211.8" y="149" fill-rule="evenodd" clip-rule="evenodd" fill="#022A44" width="4" height="2.2"/>
        <rect x="222.7" y="136.8" fill-rule="evenodd" clip-rule="evenodd" fill="#022A44" width="21.2" height="10"/>
        <rect x="204.6" y="149" fill-rule="evenodd" clip-rule="evenodd" fill="#022A44" width="4" height="2.2"/>
        <rect x="226.3" y="132.4" fill-rule="evenodd" clip-rule="evenodd" fill="#022A44" width="4" height="2.2"/>
        <rect x="226.3" y="149" fill-rule="evenodd" clip-rule="evenodd" fill="#022A44" width="4" height="2.2"/>
        <rect x="204.6" y="132.4" fill-rule="evenodd" clip-rule="evenodd" fill="#022A44" width="4" height="2.2"/>
        <rect x="197.4" y="132.4" fill-rule="evenodd" clip-rule="evenodd" fill="#022A44" width="4" height="2.2"/>
        <rect x="197.4" y="149" fill-rule="evenodd" clip-rule="evenodd" fill="#022A44" width="4" height="2.2"/>
        <rect x="197.4" y="136.8" fill-rule="evenodd" clip-rule="evenodd" fill="#022A44" width="21.2" height="10"/>
        <rect x="219.1" y="149" fill-rule="evenodd" clip-rule="evenodd" fill="#022A44" width="4" height="2.2"/>
        <rect x="219.1" y="132.4" fill-rule="evenodd" clip-rule="evenodd" fill="#022A44" width="4" height="2.2"/>
        <rect x="211.8" y="132.4" fill-rule="evenodd" clip-rule="evenodd" fill="#022A44" width="4" height="2.2"/>
    </g>
    <path fill="#022A44" d="M565.5,133.8h-73.5c-0.6,0-1.1,0.5-1.1,1.1v30.9c0,0.6,0.5,1.1,1.1,1.1h73.5c0.6,0,1.1-0.5,1.1-1.1v-30.9
        C566.6,134.3,566.1,133.8,565.5,133.8z M555.3,136.7h5.3v2.2h-5.3V136.7z M545.5,136.7h5.3v2.2h-5.3V136.7z M535.8,136.7h5.3v2.2
        h-5.3V136.7z M516.3,136.7h5.3v2.2h-5.3V136.7z M506.5,136.7h5.3v2.2h-5.3V136.7z M496.8,136.7h5.3v2.2h-5.3V136.7z M502.1,164
        h-5.3v-2.2h5.3V164z M511.9,164h-5.3v-2.2h5.3V164z M521.6,164h-5.3v-2.2h5.3V164z M526,158.3c0,0.6-0.5,1.1-1.1,1.1h-28.1
        c-0.6,0-1.1-0.5-1.1-1.1v-15.9c0-0.6,0.5-1.1,1.1-1.1h28.1c0.6,0,1.1,0.5,1.1,1.1V158.3z M531.4,164H526v-2.2h5.3V164z
         M531.4,138.9H526v-2.2h5.3V138.9z M541.1,164h-5.3v-2.2h5.3V164z M550.9,164h-5.3v-2.2h5.3V164z M560.6,164h-5.3v-2.2h5.3V164z
         M561.7,158.3c0,0.6-0.5,1.1-1.1,1.1h-28.1c-0.6,0-1.1-0.5-1.1-1.1v-15.9c0-0.6,0.5-1.1,1.1-1.1h28.1c0.6,0,1.1,0.5,1.1,1.1V158.3z
        "/>
    <g>
        <path fill="#022A44" d="M87.5,296.2c-0.5-10.6-9.1-19.2-19.7-19.7v3.7h-2.2v-3.7c-10.6,0.5-19.2,9.1-19.7,19.7h3.7v2.2H46
            c0.5,10.6,9.1,19.2,19.7,19.7v-3.7h2.2v3.7c10.6-0.5,19.2-9.1,19.7-19.7h-3.7v-2.2H87.5z M71.6,304.4c0,0.5-0.1,0.9-0.2,1.3
            c-0.1,0.4-0.3,0.8-0.5,1.2c-0.2,0.4-0.5,0.7-0.8,1c-0.3,0.3-0.6,0.6-1,0.8c-0.4,0.2-0.8,0.4-1.2,0.5c-0.4,0.1-0.8,0.2-1.3,0.2h0h0
            c-0.5,0-0.9-0.1-1.3-0.2c-0.4-0.1-0.8-0.3-1.2-0.5c-0.4-0.2-0.7-0.5-1-0.8c-0.3-0.3-0.6-0.6-0.8-1c-0.2-0.4-0.4-0.8-0.5-1.2
            c-0.1-0.4-0.2-0.8-0.2-1.3v-2.5l2.8-0.3v2.8c0,0.2,0,0.4,0.1,0.6c0,0.2,0.1,0.3,0.2,0.5c0.1,0.2,0.2,0.3,0.3,0.4
            c0.1,0.1,0.3,0.2,0.4,0.3c0.2,0.1,0.3,0.2,0.5,0.2c0.2,0,0.4,0.1,0.6,0.1c0.2,0,0.4,0,0.6-0.1c0.2,0,0.3-0.1,0.5-0.2
            c0.3-0.2,0.6-0.4,0.8-0.8c0.1-0.2,0.2-0.3,0.2-0.5c0-0.2,0.1-0.4,0.1-0.6v-5.9c0-0.2,0-0.4-0.1-0.6c0-0.2-0.1-0.3-0.2-0.5
            c-0.2-0.3-0.4-0.6-0.8-0.8c-0.2-0.1-0.3-0.2-0.5-0.2c-0.2,0-0.4-0.1-0.6-0.1c-0.2,0-0.3,0-0.5,0.1c-0.2,0-0.3,0.1-0.4,0.2
            c-0.1,0.1-0.3,0.2-0.4,0.3c-0.1,0.1-0.2,0.2-0.3,0.4c-0.1,0.1-0.2,0.3-0.2,0.4c-0.1,0.2-0.1,0.3-0.2,0.5l-0.1,0.5l-2.7-0.6v-12.9
            H71v2.8h-6.4v6.1c0.2-0.1,0.4-0.2,0.5-0.2c0.5-0.2,1-0.2,1.6-0.2c0.5,0,0.9,0.1,1.3,0.2c0.4,0.1,0.8,0.3,1.2,0.5
            c0.4,0.2,0.7,0.5,1,0.8c0.3,0.3,0.5,0.6,0.8,1c0.2,0.4,0.4,0.8,0.5,1.2c0.1,0.4,0.2,0.8,0.2,1.3V304.4z"/>
        <path fill="#022A44" d="M97.4,296.2c-0.6-16-13.5-29-29.5-29.5v-7.6h-2.2v7.6c-16,0.6-29,13.5-29.5,29.5h-7.6v2.2h7.6
            c0.6,16,13.5,29,29.5,29.5v7.6h2.2v-7.6c16-0.6,29-13.5,29.5-29.5h7.6v-2.2H97.4z M96.3,298.4h-6.6c-0.6,11.8-10,21.3-21.9,21.9
            v6.6h-2.2v-6.6c-11.8-0.6-21.3-10-21.9-21.9h-6.6v-2.2h6.6c0.6-11.8,10-21.3,21.9-21.9v-6.6h2.2v6.6c11.8,0.6,21.3,10,21.9,21.9
            h6.6V298.4z"/>
    </g>
    <g>
        <path fill="#022A44" d="M254.8,270.5h-67.6c-0.6,0-1.1,0.5-1.1,1.1v32.8v7.2c0,0.6,0.5,1.1,1.1,1.1h67.6c0.6,0,1.1-0.5,1.1-1.1
            v-7.2v-32.8C255.9,270.9,255.4,270.5,254.8,270.5z M211.8,279.6c0-0.4,0.2-0.7,0.5-0.9c0.3-0.2,0.7-0.2,1.1,0l16.3,8.3
            c0.4,0.2,0.6,0.6,0.6,1s-0.2,0.8-0.6,1l-16.3,8.3c-0.2,0.1-0.3,0.1-0.5,0.1c-0.2,0-0.4-0.1-0.6-0.2c-0.3-0.2-0.5-0.5-0.5-0.9
            V279.6z M253.7,310.4h-65.4v-5h65.4V310.4z"/>
        <path fill="#022A44" d="M226.5,314.6c-0.1-0.4-0.6-0.8-1-0.8h-8.9c-0.5,0-0.9,0.3-1,0.8l-2.3,7.3h-7v2.2h7.7h14h7.7v-2.2h-7
            L226.5,314.6z"/>
        <rect x="218.5" y="306.8" fill="#022A44" width="5.1" height="2.2"/>
    </g>
    <g>
        <path fill="#022A44" d="M352.9,290.5c-0.2,0-0.3,0-0.5,0.1c-0.8,2.1-1.3,4.4-1.3,6.7c0,2.3,0.5,4.6,1.3,6.7c0.2,0,0.3,0.1,0.5,0.1
            c3.7,0,6.8-3,6.8-6.8C359.7,293.5,356.7,290.5,352.9,290.5z"/>
        <path fill="#022A44" d="M369.3,287.6c3.7,0,6.8-3,6.8-6.8c0-0.2,0-0.3-0.1-0.5c-4.3-1.7-9.2-1.7-13.4,0c0,0.2-0.1,0.3-0.1,0.5
            C362.6,284.6,365.6,287.6,369.3,287.6z"/>
        <path fill="#022A44" d="M385.7,290.5c-3.7,0-6.8,3-6.8,6.8c0,3.7,3,6.8,6.8,6.8c0.2,0,0.3,0,0.5-0.1c0.8-2.1,1.3-4.4,1.3-6.7
            c0-2.3-0.5-4.6-1.3-6.7C386.1,290.5,385.9,290.5,385.7,290.5z"/>
        <path fill="#022A44" d="M369.3,306.9c-3.7,0-6.8,3-6.8,6.8c0,0.2,0,0.3,0.1,0.5c2.1,0.8,4.4,1.3,6.7,1.3h6.5
            c0.2-0.6,0.3-1.2,0.3-1.8C376.1,309.9,373.1,306.9,369.3,306.9z"/>
        <path fill="#022A44" d="M407.4,295.7c-0.4,8.3-4.5,14.2-11.3,16.5c2.5-4.4,3.9-9.5,3.9-14.9c0-16.9-13.7-30.7-30.7-30.7
            s-30.7,13.8-30.7,30.7s13.8,30.7,30.7,30.7c10.3,0,19.4-5.1,25-13c9-2,14.7-9.1,15.2-19.1L407.4,295.7z M369.3,271.7
            c5.1,0,9.2,4.1,9.2,9.2s-4.1,9.2-9.2,9.2c-5.1,0-9.2-4.1-9.2-9.2S364.3,271.7,369.3,271.7z M371.8,297.3c0,1.4-1.1,2.5-2.5,2.5
            c-1.4,0-2.5-1.1-2.5-2.5c0-1.4,1.1-2.5,2.5-2.5C370.7,294.8,371.8,295.9,371.8,297.3z M352.9,306.5c-5.1,0-9.2-4.1-9.2-9.2
            s4.1-9.2,9.2-9.2c5.1,0,9.2,4.1,9.2,9.2S358,306.5,352.9,306.5z M369.3,322.8c-5.1,0-9.2-4.1-9.2-9.2s4.1-9.2,9.2-9.2
            c5.1,0,9.2,4.1,9.2,9.2S374.4,322.8,369.3,322.8z M385.7,306.5c-5.1,0-9.2-4.1-9.2-9.2s4.1-9.2,9.2-9.2c5.1,0,9.2,4.1,9.2,9.2
            S390.8,306.5,385.7,306.5z"/>
    </g>
    <g>
        <path fill="#022A44" d="M502.6,298.3h20.8v-21h-20.8V298.3z M507.6,280.4h10.8v2.2h-10.8V280.4z M507.6,286.7h10.8v2.2h-10.8
            V286.7z M507.6,293h10.8v2.2h-10.8V293z"/>
        <path fill="#022A44" d="M549.6,286.8l-11-5.6c-0.3-0.2-0.7-0.2-1.1,0s-0.5,0.5-0.5,0.9v11.2c0,0.4,0.2,0.7,0.5,0.9
            c0.2,0.1,0.4,0.2,0.6,0.2c0.2,0,0.3,0,0.5-0.1l11-5.6c0.4-0.2,0.6-0.6,0.6-1S550,287,549.6,286.8z"/>
        <path fill="#022A44" d="M562.5,268.9h-67.6c-0.6,0-1.1,0.5-1.1,1.1v35.7c0,0.6,0.5,1.1,1.1,1.1h67.6c0.6,0,1.1-0.5,1.1-1.1v-35.7
            C563.6,269.3,563.1,268.9,562.5,268.9z M525.5,299.4c0,0.6-0.5,1.1-1.1,1.1h-22.9c-0.6,0-1.1-0.5-1.1-1.1v-23.1
            c0-0.6,0.5-1.1,1.1-1.1h22.9c0.6,0,1.1,0.5,1.1,1.1V299.4z M557,299.4c0,0.6-0.5,1.1-1.1,1.1h-26.3c-0.6,0-1.1-0.5-1.1-1.1v-23.1
            c0-0.6,0.5-1.1,1.1-1.1h26.3c0.6,0,1.1,0.5,1.1,1.1V299.4z"/>
        <path fill="#022A44" d="M562.5,308.6h-67.6c-0.6,0-1.1,0.5-1.1,1.1v5.5c0,0.6,0.5,1.1,1.1,1.1h30.8l-1.3,7.3h-5.9v2.2h6.8h6.8h6.8
            v-2.2H533l-1.3-7.3h30.8c0.6,0,1.1-0.5,1.1-1.1v-5.5C563.6,309.1,563.1,308.6,562.5,308.6z M561.4,314.1h-31H527h-31v-3.4h65.4
            V314.1z"/>
    </g>
    <g>
        <path fill="#022A44" d="M96.5,443.3H39.3c-0.6,0-1.1,0.5-1.1,1.1v27.2c0,0.6,0.5,1.1,1.1,1.1h57.2c0.6,0,1.1-0.5,1.1-1.1v-27.2
            C97.6,443.8,97.1,443.3,96.5,443.3z M86.7,466.4H49.1v-2.2h37.6V466.4z M86.7,460H49.1v-2.2h37.6V460z M86.7,453.6H49.1v-2.2h7.1
            v-4.1h2.2v4.1h8.5v-4.1H69v4.1h8.5v-4.1h2.2v4.1h7.1V453.6z"/>
        <path fill="#022A44" d="M38.2,439.8c0,0.6,0.5,1.1,1.1,1.1h57.2c0.6,0,1.1-0.5,1.1-1.1v-8.9c0-0.6-0.5-1.1-1.1-1.1h-49l47.3-12.7
            c0.6-0.2,0.9-0.7,0.8-1.3l-2.3-8.6c-0.2-0.6-0.7-0.9-1.3-0.8l-55.3,14.8c-0.6,0.2-0.9,0.7-0.8,1.3l2.3,8.4V439.8z M88.3,409.7
            l2.4-0.6l-2,7.5l-2.4,0.6L88.3,409.7z M80.7,411.7l2.4-0.6l-2,7.5l-2.4,0.6L80.7,411.7z M73.2,413.7l2.4-0.6l-2,7.5l-2.4,0.6
            L73.2,413.7z M65.6,415.7l2.4-0.6l-2,7.5l-2.4,0.6L65.6,415.7z M58,417.8l2.4-0.6l-2,7.5l-2.4,0.6L58,417.8z M50.4,419.8l2.4-0.6
            l-2,7.5l-2.4,0.6L50.4,419.8z M90.7,432l3.9,6.7h-2.5l-3.9-6.7H90.7z M82.9,432l3.9,6.7h-2.5l-3.9-6.7H82.9z M75.1,432l3.9,6.7
            h-2.5l-3.9-6.7H75.1z M67.2,432l3.9,6.7h-2.5l-3.9-6.7H67.2z M59.4,432l3.9,6.7h-2.5l-3.9-6.7H59.4z M51.5,432l3.9,6.7h-2.5
            L49,432H51.5z M47.6,438.7h-2.5l-3.9-6.7h2.5L47.6,438.7z M42.9,421.8l2.4-0.6l-2,7.5l-2.4,0.6L42.9,421.8z"/>
    </g>
    <g>
        <path fill="#13d57b" d="M260.5,426.1c-0.3-0.2-0.7-0.2-1.1,0l-10.3,5.1c-0.4,0.2-0.6,0.6-0.6,1v14.8c0,0.4,0.2,0.8,0.6,1l10.3,5.1
            c0.2,0.1,0.3,0.1,0.5,0.1c0.2,0,0.4-0.1,0.6-0.2c0.3-0.2,0.5-0.5,0.5-0.9v-25C261,426.7,260.8,426.3,260.5,426.1z"/>
        <path fill="#13d57b" d="M244.8,416.9h-51.3c-0.6,0-1.1,0.5-1.1,1.1v5h16c4.7,0,8.5,3.8,8.5,8.5c0,4.7-3.8,8.5-8.5,8.5h-16V461
            c0,0.6,0.5,1.1,1.1,1.1h51.3c0.6,0,1.1-0.5,1.1-1.1v-43C245.9,417.4,245.4,416.9,244.8,416.9z M226.3,427c0-1.5,1.2-2.8,2.8-2.8
            h4.7c1.5,0,2.8,1.2,2.8,2.8v4.7c0,1.5-1.2,2.8-2.8,2.8h-4.7c-1.5,0-2.8-1.2-2.8-2.8V427z M229.6,454.5h-5.2v-2.2h5.2V454.5z
             M238.4,454.5h-5.2v-2.2h5.2V454.5z"/>
        <path fill="#13d57b" d="M215.1,431.5c0-3.7-3-6.7-6.7-6.7h-21.4l-4-5.1c-0.3-0.4-0.8-0.5-1.2-0.3c-0.4,0.2-0.7,0.6-0.7,1v22.2
            c0,0.5,0.3,0.9,0.7,1c0.1,0,0.2,0.1,0.4,0.1c0.3,0,0.6-0.1,0.8-0.4l4-5.1h21.4C212.1,438.2,215.1,435.2,215.1,431.5z"/>
    </g>
</g>
</svg>
