<svg version="1.1" id="Layer_1" xmlns="http://www.w3.org/2000/svg" xmlns:xlink="http://www.w3.org/1999/xlink" x="0px" y="0px"
     viewBox="0 0 1400 980" enable-background="new 0 0 1400 980" xml:space="preserve">
<g>
    <g id="XMLID_10_">
        <path id="XMLID_42_" fill="#414042" d="M232.2,258.5c-20.7,0-43.9-23.7-59.5-39.6c-16.6-16.2-41.7-40.9-39.4-62.3
            c1.4-13,6.8-24,14.9-30.3c4.8-3.7,11.7-3.1,15.8,1.4l10.4,11.3l6.3,7.2c2.1,2.4,3.2,5.5,2.9,8.8c-0.3,3.2-1.8,6.1-4.3,8.2l-6.2,5
            c-1.5,1.2-2.6,2.6-3.2,4.2c-1.7,4.1-0.9,8.6,1.9,11.8l12,13.6c3.1,3.6,6.5,7,10.1,10.1l13.6,12c2.9,2.5,6.8,3.4,10.5,2.3
            c2.1-0.6,4.1-2,5.7-4l4.8-5.9c2-2.5,4.9-4.1,8.2-4.3c3.2-0.3,6.3,0.7,8.8,2.9l7.1,6.2l11.4,10.5c4.5,4.1,5.1,11.1,1.4,15.8l0,0
            c-6.3,8.1-17.3,13.5-30.3,14.9C234,258.5,233.1,258.5,232.2,258.5z M155.3,130.9c-1,0-2,0.3-2.8,0.9c-6.6,5.1-11,14.4-12.2,25.5
            c-2,18,21.7,41.2,37.4,56.5c15.4,15.7,38.6,39.4,56.6,37.4c11.1-1.2,20.4-5.7,25.5-12.2c0,0,0,0,0,0c1.5-1.9,1.2-4.6-0.6-6.3
            l-11.3-10.4l-7.1-6.2c-1-0.9-2.2-1.3-3.5-1.2c-1.3,0.1-2.4,0.7-3.3,1.7l-4.8,5.9c-2.5,3.1-5.8,5.3-9.3,6.3
            c-6,1.7-12.4,0.3-17.1-3.8l-13.6-12c-3.8-3.3-7.4-6.9-10.7-10.7l-12-13.6c-4.6-5.2-5.8-12.6-3.1-19.1c1.1-2.6,2.9-5,5.3-7l6.2-5
            c1-0.8,1.6-2,1.7-3.3c0.1-1.3-0.3-2.5-1.2-3.5l-6.2-7.1l-10.4-11.3C157.8,131.5,156.5,130.9,155.3,130.9z"/>
    </g>
    <g id="XMLID_11_">
        <path id="XMLID_41_" fill="#414042" d="M216.9,195.5c-1.5,0-2.7-1.2-2.7-2.7c0-8.5-6.9-15.4-15.4-15.4c-1.5,0-2.7-1.2-2.7-2.7
            c0-1.5,1.2-2.7,2.7-2.7c11.4,0,20.7,9.3,20.7,20.7C219.5,194.3,218.3,195.5,216.9,195.5z"/>
    </g>
    <g id="XMLID_4_">
        <path id="XMLID_40_" fill="#414042" d="M229.8,193.6c-1.5,0-2.7-1.2-2.7-2.7c0-14.6-11.9-26.4-26.4-26.4c-1.5,0-2.7-1.2-2.7-2.7
            c0-1.5,1.2-2.7,2.7-2.7c17.5,0,31.7,14.2,31.7,31.7C232.4,192.4,231.2,193.6,229.8,193.6z"/>
    </g>
    <g id="XMLID_7_">
        <path id="XMLID_39_" fill="#414042" d="M243,191.7c-1.5,0-2.7-1.2-2.7-2.7c0-20.8-17-37.8-37.8-37.8c-1.5,0-2.7-1.2-2.7-2.7
            c0-1.5,1.2-2.7,2.7-2.7c23.8,0,43.1,19.3,43.1,43.1C245.7,190.5,244.5,191.7,243,191.7z"/>
    </g>
    <g>
        <circle id="XMLID_3_" fill="#414042" cx="503.5" cy="184.2" r="14.6"/>
        <circle id="XMLID_13_" fill="#414042" cx="549.1" cy="136.8" r="14.6"/>
        <circle id="XMLID_12_" fill="#414042" cx="549.1" cy="231.6" r="14.6"/>
        <g id="XMLID_15_">
            <polygon id="XMLID_16_" fill="#414042" points="545.9,234.7 497.4,184.2 545.9,133.8 552.3,139.9 509.6,184.2 552.3,228.6          "/>
        </g>
    </g>
    <path id="XMLID_22_" fill="#414042" d="M891.3,111.9h-65c-5.7,0-10.3,4.6-10.3,10.3v123.2c0,5.7,4.6,10.3,10.3,10.3h65
        c5.7,0,10.3-4.6,10.3-10.3V122.2C901.6,116.5,897,111.9,891.3,111.9z M845.7,120.2h26.1c1,0,1.8,0.8,1.8,1.8c0,1-0.8,1.8-1.8,1.8
        h-26.1c-1,0-1.8-0.8-1.8-1.8C843.9,121,844.7,120.2,845.7,120.2z M858.8,248.3c-5.1,0-9.2-4.1-9.2-9.2c0-5.1,4.1-9.2,9.2-9.2
        c5.1,0,9.2,4.1,9.2,9.2C868,244.1,863.8,248.3,858.8,248.3z M887.8,222.8h-58.1v-93.3h58.1V222.8z"/>
    <polygon id="XMLID_19_" fill="#414042" points="870.9,180 870.9,158.3 846.6,158.3 846.6,180 841.1,180 858.8,194 876.4,180    "/>
    <polygon id="XMLID_110_" fill="#414042" points="557.7,783.2 557.7,765 537.3,765 537.3,783.2 532.7,783.2 547.5,795 562.3,783.2   
        "/>
    <g>
        <path id="XMLID_20_" fill="#414042" d="M568.4,421h-65c-5.7,0-10.3,4.6-10.3,10.3v123.2c0,5.7,4.6,10.3,10.3,10.3h65
            c5.7,0,10.3-4.6,10.3-10.3V431.3C578.7,425.6,574.1,421,568.4,421z M522.8,429.3h26.1c1,0,1.8,0.8,1.8,1.8c0,1-0.8,1.8-1.8,1.8
            h-26.1c-1,0-1.8-0.8-1.8-1.8C521,430.1,521.8,429.3,522.8,429.3z M535.9,557.4c-5.1,0-9.2-4.1-9.2-9.2c0-5.1,4.1-9.2,9.2-9.2
            c5.1,0,9.2,4.1,9.2,9.2C545.1,553.2,541,557.4,535.9,557.4z M564.9,531.9h-58.1v-93.3h58.1V531.9z"/>
        <g id="XMLID_30_">
            <g id="XMLID_17_">
                <circle id="XMLID_14_" fill="#414042" cx="573.2" cy="388.3" r="3.9"/>
                <circle id="XMLID_29_" fill="#414042" cx="587.2" cy="388.3" r="3.9"/>
                <circle id="XMLID_31_" fill="#414042" cx="601.2" cy="388.3" r="3.9"/>
            </g>
            <path fill="#414042" d="M631.5,416.7c0-10.6-10.4-19.2-23.3-19.2c-12.9,0-23.3,8.6-23.3,19.2c0,10.6,10.4,19.2,23.3,19.2
                c4.1,0,8-0.9,11.3-2.4l12,4.7l-6.6-8.1C629,426.6,631.5,421.9,631.5,416.7z M596.3,419.8c-1.8,0-3.3-1.5-3.3-3.3s1.5-3.3,3.3-3.3
                c1.8,0,3.3,1.5,3.3,3.3S598.1,419.8,596.3,419.8z M608.2,419.8c-1.8,0-3.3-1.5-3.3-3.3s1.5-3.3,3.3-3.3s3.3,1.5,3.3,3.3
                S610,419.8,608.2,419.8z M620.1,419.8c-1.8,0-3.3-1.5-3.3-3.3s1.5-3.3,3.3-3.3s3.3,1.5,3.3,3.3S621.9,419.8,620.1,419.8z"/>
            <path id="XMLID_43_" fill="#414042" d="M583.1,409.9c-3.1-0.4-6.1-1.2-8.8-2.5l-0.4-0.2l-10.9,4.3l5.9-7.3l-0.8-0.7
                c-4.8-4-7.4-9.4-7.4-15c0-11.9,11.8-21.6,26.4-21.6c14.6,0,26.4,9.7,26.4,21.6c0,2.3-0.4,4.5-1.2,6.5c0.7,0.1,1.4,0.2,2.1,0.3
                c0.8-2.2,1.2-4.5,1.2-6.9c0-13-12.8-23.6-28.5-23.6s-28.5,10.6-28.5,23.6c0,5.9,2.6,11.5,7.4,15.9l-9.7,11.8l17.4-6.8
                c2.7,1.2,5.6,2,8.6,2.4C582.7,411.2,582.9,410.5,583.1,409.9z"/>
        </g>
    </g>
    <g id="XMLID_38_">
        <path id="XMLID_61_" fill="#414042" d="M200.4,551.2c-36.4,0-66-29.6-66-66c0-36.4,29.6-66,66-66s66,29.6,66,66
            C266.4,521.6,236.8,551.2,200.4,551.2z M200.4,425.4c-33,0-59.8,26.8-59.8,59.8s26.8,59.8,59.8,59.8s59.8-26.8,59.8-59.8
            S233.4,425.4,200.4,425.4z"/>
    </g>
    <g id="XMLID_46_">
        <path id="XMLID_58_" fill="#414042" d="M200.4,551.2c-0.5,0-1.1-0.1-1.6-0.4c-23.4-13.8-37.4-38.3-37.4-65.6
            c0-27.2,14-51.7,37.4-65.6c1-0.6,2.1-0.6,3.1,0c1,0.6,1.6,1.6,1.6,2.7v125.8c0,1.1-0.6,2.1-1.6,2.7
            C201.5,551.1,200.9,551.2,200.4,551.2z M197.3,428c-18.7,13.1-29.7,34.1-29.7,57.2s11,44.2,29.7,57.2V428z"/>
    </g>
    <g id="XMLID_47_">
        <path id="XMLID_55_" fill="#414042" d="M200.4,551.2c-0.5,0-1.1-0.1-1.5-0.4c-1-0.6-1.6-1.6-1.6-2.7V422.4c0-1.1,0.6-2.1,1.6-2.7
            c1-0.6,2.1-0.5,3.1,0c23.4,13.8,37.4,38.3,37.4,65.6c0,27.2-14,51.7-37.4,65.6C201.5,551.1,200.9,551.2,200.4,551.2z M203.5,428
            v114.5c18.7-13.1,29.7-34.1,29.7-57.2S222.2,441.1,203.5,428z"/>
    </g>
    <g id="XMLID_49_">
        <path id="XMLID_54_" fill="#414042" d="M263.3,488.3H137.5c-1.7,0-3.1-1.4-3.1-3.1c0-1.7,1.4-3.1,3.1-3.1h125.8
            c1.7,0,3.1,1.4,3.1,3.1C266.4,487,265,488.3,263.3,488.3z"/>
    </g>
    <path id="XMLID_68_" fill="#414042" d="M200.4,461c16.8,0,32.8-4.5,46.8-13c-1.3-1.6-2.7-3.2-4.2-4.7
        c-12.7,7.5-27.3,11.6-42.6,11.6s-29.8-4-42.6-11.6c-1.5,1.5-2.9,3.1-4.2,4.7C167.6,456.5,183.6,461,200.4,461z"/>
    <path id="XMLID_66_" fill="#414042" d="M200.4,509.5c-16.8,0-32.8,4.5-46.8,13c1.3,1.6,2.7,3.2,4.2,4.7
        c12.7-7.5,27.3-11.6,42.6-11.6s29.8,4,42.6,11.6c1.5-1.5,2.9-3.1,4.2-4.7C233.2,514,217.2,509.5,200.4,509.5z"/>
    <g id="XMLID_48_">
        <path id="XMLID_73_" fill="#414042" d="M1225.7,257.8h-61.6c-15.5,0-28.2-12.6-28.2-28.2v-90.8c0-15.5,12.6-28.2,28.2-28.2h61.6
            c15.5,0,28.2,12.6,28.2,28.2v90.8C1253.9,245.2,1241.3,257.8,1225.7,257.8z M1164.1,117.7c-11.6,0-21.1,9.5-21.1,21.1v90.8
            c0,11.6,9.5,21.1,21.1,21.1h61.6c11.6,0,21.1-9.5,21.1-21.1v-90.8c0-11.6-9.5-21.1-21.1-21.1H1164.1z"/>
    </g>
    <g id="XMLID_51_">
        <path id="XMLID_50_" fill="#414042" d="M1159,171h-19.6v-12.5h19.6c2.2,0,4,1.8,4,4v4.5C1163,169.3,1161.2,171,1159,171z"/>
        <path id="XMLID_53_" fill="#414042" d="M1159,209.9h-19.6v-12.5h19.6c2.2,0,4,1.8,4,4v4.5C1163,208.1,1161.2,209.9,1159,209.9z"/>
    </g>
    <g id="XMLID_65_">
        <circle id="XMLID_64_" fill="#414042" cx="1198.4" cy="164.2" r="14.1"/>
        <path id="XMLID_69_" fill="#414042" d="M1224.2,202.4l-3.1-9.9c-2.1-6.5-6.7-11.6-12.6-14.3c-2.7,2.3-6.2,3.7-10.1,3.7
            c-3.8,0-7.3-1.4-10.1-3.7c-6,2.9-10.7,8.3-12.8,14.9l-2.9,9.3c-1.9,5.9,1.6,12.1,7.5,13.6l0.3,0.1c11.8,3,24.1,3,35.9,0l0.3-0.1
            C1222.6,214.5,1226.1,208.3,1224.2,202.4z"/>
    </g>
    <g id="XMLID_71_">
        <path id="XMLID_67_" fill="#414042" d="M1245.3,257.8h-19.5c-2,0-3.5-1.6-3.5-3.5c0-2,1.6-3.5,3.5-3.5c11.6,0,21.1-9.5,21.1-21.1
            v-90.8c0-11.6-9.5-21.1-21.1-21.1c-2,0-3.5-1.6-3.5-3.5c0-2,1.6-3.5,3.5-3.5h19.5c15.5,0,28.2,12.6,28.2,28.2v90.8
            C1273.5,245.2,1260.8,257.8,1245.3,257.8z M1244.4,250.7h0.9c11.6,0,21.1-9.5,21.1-21.1v-90.8c0-11.6-9.5-21.1-21.1-21.1h-0.9
            c5.8,5.2,9.5,12.7,9.5,21.1v90.8C1253.9,238,1250.2,245.6,1244.4,250.7z"/>
    </g>
    <g id="XMLID_76_">
        <circle id="XMLID_81_" fill="#d94343" cx="831.7" cy="445.5" r="16.4"/>
        <circle id="XMLID_78_" fill="#d94343" cx="881.5" cy="453.6" r="22.8"/>
        <path id="XMLID_77_" fill="#d94343" d="M923.3,515.6l-5.1-16c-3.3-10.5-10.9-18.7-20.4-23.2c-4.4,3.7-10.1,5.9-16.3,5.9
            c-6.2,0-11.9-2.2-16.3-5.9c-9.8,4.7-17.3,13.5-20.7,24.1l-4.8,15.1c-3,9.5,2.6,19.5,12.2,22l0.5,0.1c19.1,4.9,39.1,4.9,58.2,0
            l0.5-0.1C920.7,535.1,926.3,525.1,923.3,515.6z"/>
        <path id="XMLID_79_" fill="#d94343" d="M840,499.5c3.1-9.6,9.2-17.9,17.1-23.5c-2.7-6.3-7.6-11.3-13.7-14.1
            c-3.2,2.7-7.3,4.3-11.7,4.3c-4.5,0-8.5-1.6-11.7-4.3c-7,3.4-12.4,9.7-14.9,17.3l-3.4,10.8c-2.2,6.8,1.9,14,8.8,15.8l0.3,0.1
            c8.6,2.2,17.5,3,26.4,2.4L840,499.5z"/>
        <circle id="XMLID_80_" fill="#d94343" cx="931.3" cy="445.5" r="16.4"/>
        <path id="XMLID_52_" fill="#d94343" d="M923.1,499.5c-3.1-9.6-9.2-17.9-17.1-23.5c2.7-6.3,7.6-11.3,13.7-14.1
            c3.2,2.7,7.3,4.3,11.7,4.3c4.5,0,8.5-1.6,11.7-4.3c7,3.4,12.4,9.7,14.9,17.3l3.4,10.8c2.2,6.8-1.9,14-8.8,15.8l-0.3,0.1
            c-8.6,2.2-17.5,3-26.4,2.4L923.1,499.5z"/>
    </g>
    <g id="XMLID_100_">
        <g id="XMLID_82_">
            <path id="XMLID_84_" fill="#414042" d="M1230.4,465.7h-37.4v-33.4c0-10.3,8.4-18.7,18.7-18.7l0,0c10.3,0,18.7,8.4,18.7,18.7
                V465.7z"/>
            <path id="XMLID_88_" fill="#414042" d="M1230.4,468.6h-37.4c-1.6,0-2.8-1.3-2.8-2.8v-33.4c0-11.9,9.7-21.5,21.5-21.5
                s21.5,9.7,21.5,21.5v33.4C1233.3,467.3,1232,468.6,1230.4,468.6z M1195.9,462.9h31.7v-30.6c0-8.7-7.1-15.9-15.9-15.9
                s-15.9,7.1-15.9,15.9V462.9z"/>
        </g>
        <g id="XMLID_83_">
            <path id="XMLID_85_" fill="#414042" d="M1211.7,520.7c-11.9,0-21.5-9.7-21.5-21.5v-33.4c0-1.6,1.3-2.8,2.8-2.8h37.4
                c1.6,0,2.8,1.3,2.8,2.8v33.4C1233.3,511,1223.6,520.7,1211.7,520.7z M1195.9,468.6v30.6c0,8.7,7.1,15.9,15.9,15.9
                s15.9-7.1,15.9-15.9v-30.6H1195.9z"/>
        </g>
        <g id="XMLID_91_">
            <path id="XMLID_97_" fill="#414042" d="M1212.4,536.7c-19.5,0-35.4-15.9-35.4-35.4v-32.8c0-1.6,1.3-2.8,2.8-2.8h65.1
                c1.6,0,2.8,1.3,2.8,2.8v32.8C1247.8,520.8,1231.9,536.7,1212.4,536.7z M1182.7,471.4v29.9c0,16.4,13.3,29.7,29.7,29.7
                c16.4,0,29.7-13.3,29.7-29.7v-29.9H1182.7z"/>
        </g>
        <g id="XMLID_93_">
            <path id="XMLID_96_" fill="#414042" d="M1230.4,553.5h-37.4c-2.2,0-4-1.8-4-4s1.8-4,4-4h37.4c2.2,0,4,1.8,4,4
                S1232.6,553.5,1230.4,553.5z"/>
        </g>
        <g id="XMLID_94_">
            <path id="XMLID_95_" fill="#414042" d="M1212.4,552.4c-1.6,0-2.8-1.3-2.8-2.8v-15.7c0-1.6,1.3-2.8,2.8-2.8s2.8,1.3,2.8,2.8v15.7
                C1215.3,551.1,1214,552.4,1212.4,552.4z"/>
        </g>
        <rect id="XMLID_92_" x="1175.3" y="463.6" fill="#414042" width="9.8" height="9.8"/>
        <rect id="XMLID_101_" x="1239.8" y="463.6" fill="#414042" width="9.8" height="9.8"/>
    </g>
    <path id="XMLID_109_" fill="#414042" d="M170.1,794.3h-20.5c-2.9,0-5.2,2.3-5.2,5.2v15.9v37.2v15.9h31v-15.9v-37.2v-15.9
        C175.4,796.6,173,794.3,170.1,794.3z"/>
    <path id="XMLID_103_" fill="#414042" d="M210.4,770.4h-20.5c-2.9,0-5.2,2.3-5.2,5.2v15.9v8v15.9v13.3v15.9v8v15.9h31v-15.9v-8
        v-15.9v-13.3v-15.9v-8v-15.9C215.6,772.7,213.3,770.4,210.4,770.4z"/>
    <path id="XMLID_105_" fill="#414042" d="M251.2,741.2h-20.5c-2.9,0-5.2,2.3-5.2,5.2v15.9v8v5.2v10.7v5.2v8v0v15.9v0v8v5.2v10.7v5.2
        v8v15.9h31v-15.9v-8v-5.2v-10.7v-5.2v-8v0v-15.9v0v-8v-5.2v-10.7v-5.2v-8v-15.9C256.4,743.5,254.1,741.2,251.2,741.2z"/>
    <g id="XMLID_104_">
        <path id="XMLID_116_" fill="#414042" d="M596.8,862h-98.7c-8.9,0-16.2-7.3-16.2-16.2v-67.1c0-4.3,1.7-8.4,4.7-11.5
            c1.3-1.3,3.5-1.5,5-0.2l46.8,38.4c1.6,1.3,1.8,3.6,0.5,5.2c-1.3,1.6-3.6,1.8-5.2,0.5l-43.7-35.9c-0.5,1.1-0.7,2.2-0.7,3.4v67.1
            c0,4.8,3.9,8.8,8.8,8.8h98.7c4.8,0,8.8-3.9,8.8-8.8v-67.1c0-1.3-0.3-2.5-0.8-3.6l-43.3,36.1c-1.6,1.3-3.9,1.1-5.2-0.5
            c-1.3-1.6-1.1-3.9,0.5-5.2l46.4-38.6c1.5-1.2,3.6-1.1,5,0.2c3.2,3.1,5,7.2,5,11.7v67.1C613,854.8,605.7,862,596.8,862z"/>
    </g>
    <g id="XMLID_108_">
        <path id="XMLID_113_" fill="#414042" d="M596.8,862h-98.7c-4.2,0-8.2-1.6-11.3-4.6c-0.7-0.7-1.1-1.6-1.1-2.6c0-1,0.4-2,1.1-2.7
            l47.7-47.5c7.1-7.1,18.7-7.1,25.8,0l47.7,47.5c0.7,0.7,1.1,1.7,1.1,2.7c0,1-0.4,2-1.1,2.6C605,860.4,601,862,596.8,862z
             M495.4,854.2c0.9,0.3,1.8,0.4,2.8,0.4h98.7c1,0,1.9-0.2,2.8-0.4L555.2,810c-4.2-4.2-11.1-4.2-15.4,0L495.4,854.2z"/>
    </g>
    <g id="XMLID_106_">
        <path id="XMLID_112_" fill="#414042" d="M503.3,783.7c-2,0-3.7-1.7-3.7-3.7v-25.6c0-2.1,1.7-3.7,3.7-3.7h88.4c2,0,3.7,1.7,3.7,3.7
            V780c0,2.1-1.7,3.7-3.7,3.7c-2.1,0-3.7-1.7-3.7-3.7v-21.8h-81V780C507,782.1,505.3,783.7,503.3,783.7z"/>
    </g>
    <g id="XMLID_102_">
        <path id="XMLID_111_" fill="#414042" d="M579.4,744.1c-0.9,0-1.7-0.3-2.4-0.9L552,721.6c-2.6-2.3-6.5-2.3-9.1,0L518,743.2
            c-1.5,1.3-3.9,1.2-5.2-0.4c-1.3-1.5-1.2-3.9,0.4-5.2L538,716c5.4-4.7,13.5-4.7,18.9,0l24.9,21.6c1.5,1.3,1.7,3.7,0.4,5.2
            C581.4,743.7,580.4,744.1,579.4,744.1z"/>
    </g>
    <path id="XMLID_123_" fill="#414042" d="M892.3,754.1c-30.8,0-53.1,21.7-53.1,51.6c0,14.1,5.4,27,15.2,36.3
        c9,8.6,21.2,13.6,33.4,13.6c4.6,0,8.7-0.3,12.5-0.8c3.8-0.5,6.2-4.2,5.1-7.9c-0.9-3-3.8-4.8-6.8-4.4c-3.2,0.4-6.8,0.7-10.8,0.7
        c-22.4,0-36.2-19.5-36.2-37.5c0-23.1,16.7-39.2,40.7-39.2c11.8,0,31.7,4.7,31.7,36c0,7.4-2.6,14.1-7.6,20.1
        c-0.6,0.7-1.3,0.7-1.8,0.6c-0.5-0.1-1.3-0.5-1.5-1.5c-0.1-0.3-0.2-0.7-0.3-1c-0.1-0.2-6-15.4-0.5-33c1-3.2-0.4-6.7-3.5-7.9
        c-2.8-1.1-5.8,0-7.4,2.3c-3.1-2.5-7.2-4.6-12.3-5.5c-6.1-1.1-12.2,0.6-17.1,4.8c-7.1,5.9-11,16-11,28.3c0,12.7,7.4,25.6,24,25.6
        c7,0,12.9-2.7,17.3-7.6c1.8,3.7,5.2,6.5,9.3,7.5c5.3,1.3,10.8-0.4,14.3-4.6c6.9-8.1,10.5-17.9,10.5-28.1
        C936.4,772.6,919.5,754.1,892.3,754.1z M885,822.8c-5.3,0-11.6-2.3-11.6-13.2c0-8.5,2.4-15.4,6.6-18.9c2.1-1.8,4.5-2.5,7-2
        c7.2,1.3,10,6.6,10.1,6.9c0.2,0.5,0.5,0.9,0.8,1.3c-0.4,4.4-0.4,8.5,0,12.2c-0.5,0.7-1,1.5-1.2,2.4
        C894.9,819.1,891,822.8,885,822.8z"/>
    <g id="XMLID_132_">
        <g id="XMLID_120_">
            <path id="XMLID_126_" fill="#414042" d="M1268.6,820.7c-0.9,0-1.9-0.2-2.8-0.7c-2.8-1.5-3.9-5.1-2.3-7.9
                c4.3-7.9,6.6-16.8,6.6-25.8c0-29.7-24.2-53.9-53.9-53.9c-29.7,0-53.9,24.2-53.9,53.9c0,9,2.3,18,6.6,25.8
                c1.5,2.8,0.5,6.4-2.3,7.9c-2.8,1.5-6.4,0.5-7.9-2.3c-5.3-9.6-8-20.5-8-31.4c0-36.1,29.4-65.5,65.5-65.5
                c36.1,0,65.5,29.4,65.5,65.5c0,11-2.8,21.9-8,31.4C1272.6,819.6,1270.6,820.7,1268.6,820.7z"/>
        </g>
        <g id="XMLID_118_">
            <path id="XMLID_124_" fill="#414042" d="M1191.2,851.2c-4.6,1.3-9.3-1.3-10.6-5.9l-12.2-42.2c-1.3-4.5,1.3-9.3,5.9-10.6
                c4.6-1.3,9.3,1.3,10.6,5.9l12.2,42.2C1198.3,845.1,1195.7,849.8,1191.2,851.2z"/>
        </g>
        <g id="XMLID_121_">
            <path id="XMLID_125_" fill="#414042" d="M1170.8,843.2c-3.1,0-6-2-6.9-5.2l-5.7-19.8c-1.1-3.8,1.1-7.8,4.9-8.9
                c3.8-1.1,7.8,1.1,8.9,4.9l5.7,19.8c1.1,3.8-1.1,7.8-4.9,8.9C1172.1,843.1,1171.5,843.2,1170.8,843.2z"/>
        </g>
        <g id="XMLID_128_">
            <path id="XMLID_129_" fill="#414042" d="M1241.2,851.2c4.6,1.3,9.3-1.3,10.6-5.9l12.2-42.2c1.3-4.5-1.3-9.3-5.9-10.6
                s-9.3,1.3-10.6,5.9l-12.2,42.2C1234,845.1,1236.6,849.8,1241.2,851.2z"/>
        </g>
        <g id="XMLID_117_">
            <path id="XMLID_127_" fill="#414042" d="M1261.6,843.2c3.1,0,6-2,6.9-5.2l5.7-19.8c1.1-3.8-1.1-7.8-4.9-8.9
                c-3.8-1.1-7.8,1.1-8.9,4.9l-5.7,19.8c-1.1,3.8,1.1,7.8,4.9,8.9C1260.2,843.1,1260.9,843.2,1261.6,843.2z"/>
        </g>
        <g id="XMLID_130_">
            <path id="XMLID_133_" fill="#414042" d="M1171.1,868.1c-7.2,0-14.3-1.4-20.6-4.1c-10.3-4.4-15.2-13.6-12.1-22.3
                c1.1-3.1,3.7-5.8,7.3-7.4l21.1-10.5l2.3,4.6l-21.1,10.5c-2.4,1.1-4,2.7-4.7,4.4c-2.2,6.1,1.5,12.5,9.3,15.8
                c6.4,2.8,13.8,4,21.2,3.6l33.2-1.8l0.3,5.2l-33.2,1.8C1173.1,868,1172.1,868.1,1171.1,868.1z"/>
        </g>
        <path id="XMLID_131_" fill="#414042" d="M1208.9,869.4h-11.5c-2.2,0-4-1.8-4-4v-3.7c0-2.2,1.8-4,4-4h11.5c2.2,0,4,1.8,4,4v3.7
            C1212.8,867.6,1211.1,869.4,1208.9,869.4z"/>
    </g>
</g>
</svg>